<svg width="68" height="64" viewBox="0 0 68 64" fill="none"
	xmlns="http://www.w3.org/2000/svg">
	<rect width="68" height="64" fill="white"/>
	<g clip-path="url(#clip0)">
		<path d="M41.0763 0.0562249C33.215 0.567135 25.8046 3.73478 20.1167 9.74081C18.267 11.6936 16.7526 13.8054 15.504 16.0534C12.2208 17.2115 9.13409 18.9372 6.46357 21.3555C-0.380362 27.5772 -1.96418 38.2837 2.52137 46.5831C8.59074 57.8118 21.8162 58.9812 33.4115 57.7891C34.3942 59.9122 36.2555 61.6493 38.4173 62.6257C42.1977 64.3287 46.3364 64.113 50.3826 63.761C52.3942 63.5907 52.4058 60.8432 50.3826 60.6729C49.111 60.5707 47.3653 60.4912 46.4867 59.4353C45.7815 58.5838 45.8046 57.1873 46.5329 56.3699C47.0763 55.7568 47.9549 55.4389 48.7179 55.1664C49.689 54.8144 50.6832 54.4852 51.6196 54.0424C51.7006 54.0083 51.7699 53.9629 51.8393 53.9175C54.9607 52.714 57.8855 51.0223 60.3826 48.4678C65.4809 43.2338 67.6543 35.6837 67.9665 28.2585C68.2902 20.7992 65.9318 12.9652 61.0069 7.65176C55.9896 2.22475 48.0705 -0.409271 41.0763 0.0562249ZM51.8508 25.4995L46.6832 32.1981C46.1977 32.8226 46.0705 33.6401 46.3133 34.378L49.0069 42.3596C49.6428 44.2329 47.8162 45.9927 45.9202 45.3569L37.8393 42.598C37.0878 42.3369 36.2555 42.4618 35.6081 42.9273L28.7179 47.9115C27.0994 49.0809 24.8219 47.9228 24.8682 45.9473L25.0416 37.5457C25.0532 36.7623 24.6832 36.0243 24.0358 35.5702L17.0878 30.6654C15.4578 29.5187 15.874 27.0323 17.793 26.4646L25.978 24.0236C26.741 23.7965 27.3422 23.2175 27.585 22.4681L30.1861 14.4639C30.7988 12.5906 33.3306 12.2045 34.4751 13.8281L39.3653 20.7197C39.8162 21.3669 40.5676 21.7415 41.3653 21.7415L49.9202 21.6961C51.9087 21.6734 53.0647 23.9214 51.8508 25.4995Z" fill="black"/>
	</g>
	<defs>
		<clipPath id="clip0">
			<rect width="68" height="64" fill="white"/>
		</clipPath>
	</defs>
</svg>
